<mxfile host="app.diagrams.net" agent="Mozilla/5.0 (Windows NT 10.0; Win64; x64) AppleWebKit/537.36 (KHTML, like Gecko) Chrome/129.0.0.0 Safari/537.36" version="24.7.17">
  <diagram name="第 1 页" id="xEnwicReXpH4lf3l83hX">
    <mxGraphModel dx="1434" dy="772" grid="1" gridSize="10" guides="1" tooltips="1" connect="1" arrows="1" fold="1" page="1" pageScale="1" pageWidth="827" pageHeight="1169" math="0" shadow="0">
      <root>
        <mxCell id="0" />
        <mxCell id="1" parent="0" />
        <mxCell id="smmiUGN9Zar5Pmh9iA2v-1" value="" style="rounded=0;whiteSpace=wrap;html=1;" vertex="1" parent="1">
          <mxGeometry x="120" y="160" width="600" height="160" as="geometry" />
        </mxCell>
        <mxCell id="smmiUGN9Zar5Pmh9iA2v-2" value="&lt;span style=&quot;color: rgb(50, 50, 50); font-family: &amp;quot;Microsoft YaHei&amp;quot;, 微软雅黑, Arial; font-size: 18px; font-weight: 700; background-color: rgba(255, 255, 255, 0.01);&quot;&gt;云端&lt;/span&gt;" style="rounded=0;whiteSpace=wrap;html=1;" vertex="1" parent="1">
          <mxGeometry x="120" y="160" width="160" height="40" as="geometry" />
        </mxCell>
        <mxCell id="smmiUGN9Zar5Pmh9iA2v-3" value="观测量数据：&lt;div style=&quot;resize: none; outline: none; font-size: inherit;&quot;&gt;1.传感器状态数据&lt;/div&gt;&lt;div style=&quot;resize: none; outline: none; font-size: inherit;&quot;&gt;2.传感器值数据&lt;/div&gt;&lt;div style=&quot;resize: none; outline: none; font-size: inherit;&quot;&gt;3.故障和告警记录数据&lt;/div&gt;&lt;div style=&quot;resize: none; outline: none; font-size: inherit;&quot;&gt;机器人端数据由HCM收集预处理为时间序列数据。&lt;/div&gt;&lt;div style=&quot;resize: none; outline: none; font-size: inherit;&quot;&gt;&lt;br style=&quot;color: rgb(50, 50, 50); font-family: &amp;quot;Microsoft YaHei&amp;quot;, 微软雅黑, Arial; font-size: 15px; background-color: rgba(255, 255, 255, 0.01);&quot;&gt;&lt;/div&gt;" style="rounded=0;whiteSpace=wrap;html=1;align=left;" vertex="1" parent="1">
          <mxGeometry x="120" y="200" width="160" height="120" as="geometry" />
        </mxCell>
      </root>
    </mxGraphModel>
  </diagram>
</mxfile>
